<?xml version="1.0" encoding="utf-8"?>
<!-- Generator: Adobe Illustrator 19.0.0, SVG Export Plug-In . SVG Version: 6.00 Build 0)  -->
<svg version="1.1" id="Шар_1" xmlns="http://www.w3.org/2000/svg" xmlns:xlink="http://www.w3.org/1999/xlink" x="0px" y="0px"
	 viewBox="0 0 408 478.1" style="enable-background:new 0 0 408 478.1;" xml:space="preserve">
<style type="text/css">
	.st0{clip-path:url(#SVGID_2_);fill:none;stroke:#EA5B0C;stroke-width:13.094;}
	.st1{clip-path:url(#SVGID_2_);fill:#EA5B0C;}
	.st2{clip-path:url(#SVGID_2_);fill:#FFFFFF;}
</style>
<g>
	<defs>
		<rect id="SVGID_1_" width="408" height="478.1"/>
	</defs>
	<clipPath id="SVGID_2_">
		<use xlink:href="#SVGID_1_"  style="overflow:visible;"/>
	</clipPath>
	<path class="st0" d="M76.8,404.9V77.3h68.8c32.9,0,59,3.3,78.1,9.8c20.5,6.4,39.1,17.2,55.8,32.5c33.8,30.8,50.7,71.4,50.7,121.6
		c0,50.4-17.6,91.1-52.8,122.2c-17.7,15.6-36.2,26.4-55.6,32.5c-18.1,6.1-43.8,9.1-77,9.1H76.8z"/>
	<path class="st1" d="M81.1,150.4c-40.3,0-73-32.7-73-73c0-40.3,32.7-73,73-73c40.3,0,73,32.7,73,73
		C154.2,117.7,121.5,150.4,81.1,150.4"/>
	<path class="st2" d="M97.9,48.9c0.3-0.9,0.8-1.6,1.4-1.9c0.6-0.4,1.5-0.5,2.6-0.5c1.2,0,2.1,0.3,2.6,0.9c0.5,0.6,0.8,1.9,0.8,3.8
		c0,3.3,0,6.4,0.1,9.3c0,2.9,0.1,4.1,0.1,3.7c0,1.6-0.3,2.7-0.8,3.2c-0.5,0.6-1.5,0.8-2.9,0.8c-2.2,0-3.7-1.6-4.4-4.8
		c-0.2-1-0.4-1.7-0.6-2.2c-0.7-2.5-2.2-4.6-4.6-6.2c-2.4-1.6-5.3-2.4-8.6-2.4c-6,0-10.8,2.2-14.4,6.6c-3.6,4.4-5.4,10.3-5.4,17.7
		c0,7.4,1.8,13.3,5.5,17.7c3.7,4.4,8.5,6.6,14.6,6.6c2,0,3.9-0.3,6-0.8c2-0.5,4-1.4,6-2.5c0.9-0.5,2.2-1.3,3.8-2.4
		c1.6-1.1,2.7-1.7,3.4-1.7c1,0,1.9,0.3,2.6,1c0.7,0.7,1.1,1.5,1.1,2.6c0,1-0.4,2-1.2,2.9c-0.8,0.9-2.3,2.1-4.5,3.4
		c-2.8,1.9-5.7,3.2-8.6,4.1c-2.9,0.9-5.9,1.3-9.1,1.3c-8.4,0-15.3-3-20.8-8.9c-5.5-5.9-8.2-13.5-8.2-22.7c0-9.1,2.7-16.7,8.3-22.7
		c5.5-6,12.5-9.1,20.8-9.1c2.3,0,4.5,0.3,6.9,0.8C92.8,47,95.3,47.8,97.9,48.9"/>
	<path class="st1" d="M330.4,314.1c-40.3,1.2-74-30.6-75.2-70.9c-1.2-40.3,30.6-74,70.9-75.2c40.3-1.2,73.9,30.6,75.1,70.9
		C402.4,279.3,370.7,313,330.4,314.1"/>
	<path class="st2" d="M306.4,219.2c-1.5,0-2.5-0.3-3.1-0.8c-0.6-0.5-1-1.4-1-2.7c0-1.2,0.2-2.1,0.8-2.7c0.6-0.6,1.4-1,2.5-1
		l12.7-0.4c1.2,0,2.2,0.2,2.9,0.8c0.7,0.6,1,1.5,1.1,2.7c0,1.1-0.4,2-1.2,2.7c-0.8,0.7-2,1-3.4,1.1l-1,0l-0.5,0l11.9,15.8l11.4-16.5
		l-0.5,0l-1.1,0c-1.6,0-2.9-0.2-3.8-0.9c-0.9-0.6-1.4-1.5-1.4-2.6c0-1.1,0.3-2,1-2.7c0.7-0.7,1.6-1,2.8-1.1l12.7-0.4
		c1.2,0,2,0.3,2.6,0.9c0.6,0.6,0.9,1.5,1,2.7c0,1.3-0.3,2.2-1,2.8c-0.7,0.6-1.8,0.9-3.4,1L333,240.1l18.2,23.1
		c1.5,0,2.6,0.4,3.3,0.9c0.7,0.5,1.1,1.4,1.1,2.4c0,1.1-0.3,2-0.9,2.7c-0.7,0.7-1.6,1-2.7,1.1l-13.5,0.4c-1.7,0-2.9-0.2-3.6-0.7
		c-0.6-0.5-0.9-1.5-1-2.8c0-1.3,0.3-2.2,1-2.8c0.7-0.5,2.2-0.8,4.3-0.9l2.1-0.1L328,246.1l-12.2,18.1l2.3-0.1
		c2.3-0.1,3.9,0.1,4.7,0.6c0.8,0.5,1.2,1.4,1.3,2.7c0.1,1.3-0.3,2.3-0.9,2.8c-0.6,0.6-1.8,0.9-3.5,0.9l-13.4,0.4
		c-1.1,0-2.1-0.3-2.7-0.9c-0.7-0.6-1.1-1.5-1.1-2.6c0-1.1,0.3-2,1-2.6c0.7-0.6,1.8-0.9,3.3-1l16.3-23.8L306.4,219.2z"/>
	<path class="st1" d="M76.4,478c-40.3,0-73-32.7-73-73c0-40.4,32.7-73.1,73-73.1c40.3,0,73.1,32.7,73.1,73.1
		C149.4,445.3,116.7,478,76.4,478"/>
	<path class="st2" d="M62.7,429.7h2.8h4.1c2,0,3.4,0.3,4.3,0.9c0.8,0.6,1.3,1.6,1.3,3c0,1.5-0.4,2.6-1.2,3.1
		c-0.8,0.6-2.6,0.9-5.3,0.9H54.8h-2.6c-1.3,0-2.3-0.3-3-1c-0.7-0.7-1-1.7-1-3c0-1.5,0.4-2.5,1.1-3c0.8-0.5,2.3-0.8,4.4-0.8h1.1
		v-50.2h-1.4c-3.1,0-5.2-0.3-6.3-0.9c-1.1-0.6-1.6-1.6-1.6-3.1c0-1.4,0.5-2.4,1.4-3c0.9-0.6,2.5-0.9,4.6-0.9
		c1.5-0.1,2.6-0.1,3.4-0.1h5.2c1.7,0,2.9,0.2,3.6,0.6c0.7,0.4,1.5,1.4,2.4,3l28.1,48.4v-44h-2.2H88c-2,0-3.5-0.3-4.4-1
		c-0.9-0.6-1.4-1.6-1.4-3c0-1.5,0.4-2.6,1.2-3.1c0.8-0.6,2.4-0.9,4.9-0.9h13.3h2.7c1.3,0,2.3,0.3,3,1c0.7,0.7,1,1.7,1,3
		c0,1.5-0.4,2.5-1.2,3.1c-0.8,0.6-2.3,0.9-4.4,0.9H102v56.1c0,1.1-0.2,1.8-0.7,2.2c-0.5,0.4-1.7,0.6-3.5,0.6c-1.8,0-2.9-0.1-3.3-0.3
		c-0.5-0.2-1.2-1.1-2.2-2.9l-29.6-51V429.7z"/>
</g>
</svg>
