<svg xmlns="http://www.w3.org/2000/svg" width="30" height="63" viewBox="0 0 30 63">
  <defs>
    <style>
      .cls-1 {
        fill: #e8e8e8;
        fill-rule: evenodd;
      }
    </style>
  </defs>
  <path id="Forma_1" data-name="Forma 1" class="cls-1" d="M960,967a15.177,15.177,0,0,0-15,15.347V996.3a15,15,0,1,0,30,0V982.346A15.177,15.177,0,0,0,960,967Zm12.273,29.3a12.276,12.276,0,1,1-24.546,0V982.346a12.276,12.276,0,1,1,24.546,0V996.3ZM960,973.975a4.138,4.138,0,0,0-4.091,4.185v5.581a4.092,4.092,0,1,0,8.182,0V978.16A4.138,4.138,0,0,0,960,973.975Zm1.364,9.766a1.364,1.364,0,1,1-2.728,0V978.16a1.364,1.364,0,1,1,2.728,0v5.581ZM960,1026.7l-7.535-7.3a1.482,1.482,0,0,0-2.036,0,1.372,1.372,0,0,0,0,1.98l8.481,8.21a1.655,1.655,0,0,0,2.181,0l8.481-8.21a1.372,1.372,0,0,0,0-1.98,1.482,1.482,0,0,0-2.036,0Z" transform="translate(-945 -967)"/>
</svg>
