<?xml version="1.0" encoding="utf-8"?>
<!-- Generator: Adobe Illustrator 19.0.0, SVG Export Plug-In . SVG Version: 6.00 Build 0)  -->
<svg version="1.1" id="Шар_1" xmlns="http://www.w3.org/2000/svg" xmlns:xlink="http://www.w3.org/1999/xlink" x="0px" y="0px"
	 viewBox="-170.6 350.5 88.7 82.1" style="enable-background:new -170.6 350.5 88.7 82.1;" xml:space="preserve">
<style type="text/css">
	.st0{fill:#FFFFFF;}
</style>
<path class="st0" d="M-117.7,379.3c-5.2,6.2-13.1,5-17,0c-2.2,2.7-5,4.2-8.5,4.2c-3.5,0-6.3-1.5-8.4-4.1c-1,0.8-1.9,1.8-3,2.4
	c-6,3.9-14.1,0.7-15.7-6.2c-0.1-0.6-0.2-1.1-0.3-1.7c-0.1-0.9,0.2-1.6,0.8-2.3c3.3-3.8,6.6-7.6,10-11.4c0.6-0.7,0.9-1.3,0.8-2.2
	c-0.1-1.7,0-3.5,0-5.2c0-1.6,0.7-2.3,2.3-2.3c20.1,0,40.3,0,60.4,0c2.2,0,2.8,0.6,2.8,2.8c0,1.7,0,3.4,0,5.2c0,0.4,0.2,0.8,0.4,1.1
	c3.2,3.7,6.4,7.5,9.8,11.2c1.4,1.5,1.7,3,1.2,4.8c-1.1,4-3.7,6.5-7.7,7.6c-4,1-7.4-0.3-10.3-3.2c-0.2-0.2-0.4-0.4-0.6-0.7
	c-2.2,2.7-5,4.2-8.5,4.2C-112.7,383.5-115.5,382-117.7,379.3 M-126.2,361.7c-9.7,0-19.4,0-29.1,0c-0.4,0-1,0.2-1.3,0.5
	c-3.3,3.7-6.6,7.5-9.9,11.3c-0.2,0.2-0.4,0.7-0.3,1c0.2,2.5,1.9,4.5,4.3,5c1.1,0.2,2.3,0.3,3.4,0.2c2.8-0.2,4.7-1.9,5.2-4.7
	c0.1-0.6,0.1-1.2,0.1-1.7c0.1-1.6,1.7-2.5,2.9-1.7c0.7,0.4,0.9,1.1,0.9,1.9c0,3.3,1.8,5.6,5.1,6.1c0.9,0.2,1.9,0.1,2.8,0.1
	c2.7-0.3,4.5-1.9,5.1-4.5c0.2-0.8,0.2-1.6,0.3-2.4c0.1-0.9,0.7-1.3,1.5-1.5c0.9-0.2,1.6,0.2,1.9,1c0.2,0.3,0.2,0.8,0.2,1.2
	c0.2,2.5,1,4.6,3.4,5.6c2.2,0.9,4.4,0.9,6.6-0.1c2.5-1.2,3.2-3.4,3.3-5.9c0-0.9,0.7-1.7,1.5-1.8c0.9-0.1,1.9,0.4,2.1,1.3
	c0.1,0.5,0.1,1,0.2,1.5c0.2,2.3,1.2,4,3.4,5c1.5,0.7,3.1,0.7,4.7,0.5c2.5-0.4,4.2-1.8,4.8-4.2c0.2-0.7,0.2-1.5,0.2-2.2
	c0.1-1.4,1.5-2.3,2.8-1.6c0.9,0.5,1,1.3,1,2.2c0,2.6,1.4,4.8,3.8,5.5c1.3,0.4,2.8,0.5,4.1,0.4c2.8-0.2,4.8-2.1,5.2-5
	c0.1-0.4-0.1-1-0.4-1.3c-3.2-3.8-6.5-7.5-9.8-11.2c-0.2-0.3-0.7-0.4-1-0.4C-106.7,361.7-116.4,361.7-126.2,361.7 M-155.2,357.9h57.8
	v-3.5h-57.8V357.9z"/>
<path class="st0" d="M-156.3,406.4h60.1c0-0.4,0-0.7,0-1.1c0-4.8,0-9.7,0-14.5c0-0.4,0.1-0.9,0.2-1.3c0.3-0.8,1.2-1.2,2-1
	c0.9,0.2,1.5,0.9,1.5,2c0,4.6,0,9.3,0,13.9c0,8.7,0,17.3,0,26c0,1.7-0.6,2.3-2.2,2.3c-21,0-42.1,0-63.1,0c-1.6,0-2.3-0.7-2.3-2.3
	c0-13.2,0-26.3,0-39.5c0-1.2,0.5-2,1.4-2.3c1.3-0.3,2.4,0.6,2.4,2c0,3.9,0,7.8,0,11.7C-156.3,403.7-156.3,405-156.3,406.4
	 M-96.3,410.3h-59.9v18.5h59.9V410.3z"/>
</svg>
