<?xml version="1.0" encoding="utf-8"?>
<!-- Generator: Adobe Illustrator 19.0.0, SVG Export Plug-In . SVG Version: 6.00 Build 0)  -->
<svg version="1.1" id="Шар_1" xmlns="http://www.w3.org/2000/svg" xmlns:xlink="http://www.w3.org/1999/xlink" x="0px" y="0px"
	 viewBox="0 0 175.2 99.7" style="enable-background:new 0 0 175.2 99.7;" xml:space="preserve">
<style type="text/css">
	.st0{fill:#FFFFFF;}
</style>
<path class="st0" d="M170.2,0.1H7.1C3.8,0.1,0-0.7,0,2.6c0,3.3,2.7,2.7,6,2.7h13.6v12.1H6c-3.3,0-6,2.7-6,6v70.4c0,3.3,2.7,6,6,6
	h123.9c3.3,0,6-2.7,6-6V23.3c0-3.3-2.7-6-6-6h-13.6V5.3h52.9c3.3,0,6,0.7,6-2.7C175.2-0.7,173.5,0.1,170.2,0.1 M130.2,93.5H5.3V22.8
	h124.9V93.5z M112.1,17.3H23.5V5.3h88.6V17.3z"/>
<path class="st0" d="M30,48.2h73.6c2.2,0,4-0.8,4-1.7c0-1-1.8-1.7-4-1.7H30c-2.2,0-4,0.8-4,1.7C26,47.4,27.8,48.2,30,48.2"/>
<path class="st0" d="M30,60h42.4c2.2,0,4-0.8,4-1.7c0-0.9-1.8-1.7-4-1.7H30c-2.2,0-4,0.8-4,1.7C26,59.3,27.8,60,30,60"/>
<path class="st0" d="M30,74.1h42.4c2.2,0,4-0.8,4-1.7c0-0.9-1.8-1.7-4-1.7H30c-2.2,0-4,0.8-4,1.7C26,73.4,27.8,74.1,30,74.1"/>
</svg>
