<svg xmlns="http://www.w3.org/2000/svg" xmlns:xlink="http://www.w3.org/1999/xlink" width="80" height="74" viewBox="0 0 80 74">
  <defs>
    <style>
      .cls-1 {
        fill-rule: evenodd;
        filter: url(#filter);
      }
    </style>
    <filter id="filter" x="319" y="1993" width="80" height="74" filterUnits="userSpaceOnUse">
      <feFlood result="flood" flood-color="#fff"/>
      <feComposite result="composite" operator="in" in2="SourceGraphic"/>
      <feBlend result="blend" in2="SourceGraphic"/>
    </filter>
  </defs>
  <path id="Forma_1" data-name="Forma 1" class="cls-1" d="M379.113,2025.89a1.33,1.33,0,0,1-1.34,1.32H363.711a1.32,1.32,0,1,1,0-2.64h14.062A1.33,1.33,0,0,1,379.113,2025.89Zm-1.34-11.7H363.711a1.325,1.325,0,1,0,0,2.65h14.062A1.325,1.325,0,1,0,377.773,2014.19Zm0-8.5H353.781a1.32,1.32,0,1,0,0,2.64h23.992A1.32,1.32,0,1,0,377.773,2005.69Zm-45.822,26.56v-25.27h0v-0.01h0a1.376,1.376,0,0,1,.1-0.46,1.336,1.336,0,0,1,.3-0.44l12.857-12.7a1.4,1.4,0,0,1,.44-0.29,1.435,1.435,0,0,1,.467-0.09h38.611a1.33,1.33,0,0,1,1.34,1.32v37.94a1.34,1.34,0,0,1-2.679,0v-36.62H347.487v11.38a1.33,1.33,0,0,1-1.34,1.32H334.63v23.92A1.34,1.34,0,0,1,331.951,2032.25Zm4.573-26.56h8.283v-8.19Zm17.257,13.69H339.719a1.325,1.325,0,1,0,0,2.65h14.062A1.325,1.325,0,1,0,353.781,2019.38Zm23.992,0H363.711a1.325,1.325,0,1,0,0,2.65h14.062A1.325,1.325,0,1,0,377.773,2019.38Zm21.236,19.51v24.92a3.212,3.212,0,0,1-3.228,3.19H322.227a3.211,3.211,0,0,1-3.227-3.19v-24.92a3.209,3.209,0,0,1,3.227-3.18h73.554A3.21,3.21,0,0,1,399.009,2038.89Zm-2.68,0a0.553,0.553,0,0,0-.548-0.54H322.227a0.553,0.553,0,0,0-.548.54v24.92a0.553,0.553,0,0,0,.548.54h73.554a0.553,0.553,0,0,0,.548-0.54v-24.92h0ZM383.7,2054.8H334.31a1.325,1.325,0,1,0,0,2.65H383.7A1.325,1.325,0,1,0,383.7,2054.8Zm-6.557-6.9h0.378a1.325,1.325,0,1,0,0-2.65h-0.378A1.325,1.325,0,1,0,377.141,2047.9Zm6.557-2.65h-0.377a1.325,1.325,0,1,0,0,2.65H383.7A1.325,1.325,0,1,0,383.7,2045.25Zm-29.917-31.06H339.719a1.325,1.325,0,1,0,0,2.65h14.062A1.325,1.325,0,1,0,353.781,2014.19Zm23.992-13.76H363.711a1.325,1.325,0,1,0,0,2.65h14.062A1.325,1.325,0,1,0,377.773,2000.43Zm-23.992,24.14H339.719a1.32,1.32,0,1,0,0,2.64h14.062A1.32,1.32,0,1,0,353.781,2024.57Z" transform="translate(-319 -1993)"/>
</svg>
