<svg xmlns="http://www.w3.org/2000/svg" xmlns:xlink="http://www.w3.org/1999/xlink" width="80" height="89" viewBox="0 0 80 89">
  <defs>
    <style>
      .cls-1 {
        fill-rule: evenodd;
        filter: url(#filter);
      }
    </style>
    <filter id="filter" x="927" y="1978" width="80" height="89" filterUnits="userSpaceOnUse">
      <feFlood result="flood" flood-color="#fff"/>
      <feComposite result="composite" operator="in" in2="SourceGraphic"/>
      <feBlend result="blend" in2="SourceGraphic"/>
    </filter>
  </defs>
  <path id="Forma_1" data-name="Forma 1" class="cls-1" d="M1005.88,2003.37l-5.28-5.31a3.8,3.8,0,0,0-5.43,0l-9.438,9.52v-23.52a1.1,1.1,0,0,0-1.094-1.1h-3.66v-1.05a3.878,3.878,0,1,0-7.755,0v1.05h-2.439v-1.05a3.878,3.878,0,1,0-7.755,0v1.05H960.59v-1.05a3.878,3.878,0,1,0-7.755,0v1.05H950.4v-1.05a3.878,3.878,0,1,0-7.755,0v1.05H940.2v-1.05a3.878,3.878,0,1,0-7.755,0v1.05h-4.366a1.1,1.1,0,0,0-1.094,1.1v81.84a1.1,1.1,0,0,0,1.094,1.11h56.557a1.1,1.1,0,0,0,1.094-1.11v-36.74l20.148-20.31A3.918,3.918,0,0,0,1005.88,2003.37Zm-26.347,28.92a11.9,11.9,0,0,1-7.612-7.67l18.487-18.64,7.612,7.67Zm-11.111,1.8,1.72,1.73-2.58.87Zm4.04,0.95-3.267-3.29,1.468-4.44a14.146,14.146,0,0,0,6.2,6.25Zm19.493-30.62,0.895-.9,7.61,7.67-0.894.91Zm-62.78-7.72h54.369v0.95H929.175v-0.95Zm46.236-14.79a1.69,1.69,0,1,1,3.38,0v1.05h-3.38v-1.05Zm-10.194,0a1.69,1.69,0,1,1,3.38,0v1.05h-3.38v-1.05Zm-10.194,0a1.69,1.69,0,1,1,3.38,0v1.05h-3.38v-1.05Zm-10.2,0a1.691,1.691,0,1,1,3.381,0v1.05h-3.381v-1.05Zm-10.194,0a1.691,1.691,0,1,1,3.381,0v1.05h-3.381v-1.05Zm-2.187,3.26v0.75a3.9,3.9,0,0,0,3.878,3.91,1.1,1.1,0,0,0,0-2.2,1.7,1.7,0,0,1-1.691-1.71v-0.75h8.007v0.75a3.9,3.9,0,0,0,3.878,3.91,1.1,1.1,0,0,0,0-2.2,1.7,1.7,0,0,1-1.691-1.71v-0.75h8.007v0.75a3.9,3.9,0,0,0,3.878,3.91,1.1,1.1,0,0,0,0-2.2,1.7,1.7,0,0,1-1.69-1.71v-0.75h8.006v0.75a3.9,3.9,0,0,0,3.878,3.91,1.1,1.1,0,0,0,0-2.2,1.7,1.7,0,0,1-1.69-1.71v-0.75h8.007v0.75a3.9,3.9,0,0,0,3.877,3.91,1.1,1.1,0,0,0,0-2.2,1.7,1.7,0,0,1-1.69-1.71v-0.75h8.134v9.33h-54.37v-9.33h3.272Zm51.1,79.63H929.175v-64.94h54.369v9.92l-13.9,14.02a1.116,1.116,0,0,0-.265.43l-4.579,13.85a1.111,1.111,0,0,0,1.038,1.46,1.041,1.041,0,0,0,.346-0.06l13.737-4.62a1.036,1.036,0,0,0,.427-0.26l3.2-3.23v33.43h0Zm20.786-57.51-2.32,2.34-7.613-7.67,2.32-2.34a1.643,1.643,0,0,1,2.341,0l5.272,5.31A1.69,1.69,0,0,1,1004.33,2007.29Zm-58.965,9.81a0.993,0.993,0,0,0,.469-0.11l3.647-1.74a1.107,1.107,0,0,0,.518-1.47,1.094,1.094,0,0,0-1.457-.53L944.9,2015a1.107,1.107,0,0,0-.518,1.47A1.088,1.088,0,0,0,945.365,2017.1Zm0.273,21.97L947.8,2038a1.112,1.112,0,0,0,.5-1.48,1.094,1.094,0,0,0-1.465-.5l-2.165,1.07a3.461,3.461,0,0,1-4.407-1.17,3.5,3.5,0,0,1-.5-2.75,3.443,3.443,0,0,1,1.648-2.24l28.81-16.74a5.052,5.052,0,0,0,2.384-3.16,5.126,5.126,0,0,0-.576-3.93,5.047,5.047,0,0,0-6.521-1.97l-13.361,6.4a1.107,1.107,0,0,0-.519,1.47,1.09,1.09,0,0,0,1.457.52l13.362-6.4a2.877,2.877,0,0,1,3.712,1.12,2.931,2.931,0,0,1,.327,2.24,2.867,2.867,0,0,1-1.356,1.8l-28.811,16.74a5.7,5.7,0,0,0-2.687,3.65,5.766,5.766,0,0,0,.824,4.48,5.658,5.658,0,0,0,4.7,2.5A5.482,5.482,0,0,0,945.638,2039.07Zm15.685,8.32-14.049,7.92a2.911,2.911,0,0,1-3.853-.93,2.949,2.949,0,0,1-.422-2.27,2.919,2.919,0,0,1,1.329-1.88l11.581-7.13a5.23,5.23,0,0,0,1.5-7.48,5.114,5.114,0,0,0-6.475-1.63,1.1,1.1,0,0,0-.5,1.47,1.084,1.084,0,0,0,1.464.5,3,3,0,0,1,2.867,5.26l-11.58,7.13a5.139,5.139,0,0,0,5.153,8.89l14.049-7.93a1.108,1.108,0,0,0,.42-1.5A1.086,1.086,0,0,0,961.323,2047.39Zm4.832-2.73-1.544.87a1.108,1.108,0,0,0,.535,2.07,1.14,1.14,0,0,0,.533-0.14l1.544-.87a1.117,1.117,0,0,0,.421-1.51A1.087,1.087,0,0,0,966.155,2044.66Zm6.315-3.56-3.381,1.91a1.105,1.105,0,0,0-.42,1.5,1.089,1.089,0,0,0,.955.56,1.14,1.14,0,0,0,.533-0.14l3.381-1.91a1.105,1.105,0,0,0,.42-1.5A1.086,1.086,0,0,0,972.47,2041.1Z" transform="translate(-927 -1978)"/>
</svg>
