<svg xmlns="http://www.w3.org/2000/svg" xmlns:xlink="http://www.w3.org/1999/xlink" width="80" height="80" viewBox="0 0 80 80">
  <defs>
    <style>
      .cls-1 {
        fill-rule: evenodd;
        filter: url(#filter);
      }
    </style>
    <filter id="filter" x="611" y="1987" width="80" height="80" filterUnits="userSpaceOnUse">
      <feFlood result="flood" flood-color="#fff"/>
      <feComposite result="composite" operator="in" in2="SourceGraphic"/>
      <feBlend result="blend" in2="SourceGraphic"/>
    </filter>
  </defs>
  <path id="Forma_1" data-name="Forma 1" class="cls-1" d="M674.164,2059.48a1.339,1.339,0,0,1,1.339-1.34h8.133a1.34,1.34,0,0,1,0,2.68H675.5A1.339,1.339,0,0,1,674.164,2059.48Zm16.822-43.65v13.66c0,0.01,0,.02,0,0.03s0,0.03,0,.04v13.66c0,0.01,0,.02,0,0.03s0,0.02,0,.03v20.5a3.224,3.224,0,0,1-3.226,3.22H667.377a3.224,3.224,0,0,1-3.226-3.22v-73.55a3.232,3.232,0,0,1,3.226-3.23H687.76a3.232,3.232,0,0,1,3.226,3.23v11.81c0,0.01,0,.02,0,0.03s0,0.02,0,.03v13.67c0,0.01,0,.02,0,0.03S690.986,2015.82,690.986,2015.83Zm-2.678,28.76H666.829v19.19a0.553,0.553,0,0,0,.548.54H687.76a0.553,0.553,0,0,0,.548-0.54v-19.19Zm0-13.73H666.829v11.05h21.479v-11.05Zm0-13.72H666.829v11.05h21.479v-11.05Zm0-13.73H666.829v11.05h21.479v-11.05Zm0-13.18a0.555,0.555,0,0,0-.548-0.55H667.377a0.555,0.555,0,0,0-.548.55v10.5h21.479v-10.5Zm-9.5,65.57h4.832a1.34,1.34,0,0,0,0-2.68H678.8A1.34,1.34,0,0,0,678.8,2055.8Zm-66.186-41.75a3.227,3.227,0,0,1,0-4.56l14.413-14.42a3.238,3.238,0,0,1,4.562,0l8.339,8.34a0.14,0.14,0,0,1,.033.04l0.031,0.03,9.646,9.65c0.009,0.01.018,0.01,0.027,0.02l0.026,0.03,10.019,10.02a1.34,1.34,0,0,1-1.067,2.28l-15.408,15.41,7.81,7.82,6.771-6.78a1.345,1.345,0,0,1,1.894,0,1.363,1.363,0,0,1,.392.95,1.346,1.346,0,0,1-.392.95l-6.771,6.77,6.771,6.77a1.341,1.341,0,0,1-1.894,1.9Zm36.1,1.94-15.188,15.2,7.811,7.81,15.187-15.19Zm-9.7-9.7-15.188,15.19,7.811,7.81,15.188-15.19Zm-24.505,5.87,7.423,7.42,15.188-15.19-7.424-7.42a0.548,0.548,0,0,0-.774,0l-14.413,14.41A0.562,0.562,0,0,0,614.512,2012.16ZM662,2065.66a1.34,1.34,0,0,1-1.339,1.34H614.232a3.224,3.224,0,0,1-3.226-3.22v-20.39a3.232,3.232,0,0,1,3.226-3.23h19.127a1.34,1.34,0,0,1,0,2.68h-5.95v21.48h11.046v-16.38a1.339,1.339,0,1,1,2.678,0v16.38h11.046v-2.66a1.34,1.34,0,0,1,2.679,0v2.66h5.8A1.34,1.34,0,0,1,662,2065.66Zm-37.268-22.82h-10.5a0.555,0.555,0,0,0-.548.55v20.39a0.553,0.553,0,0,0,.548.54h10.5v-21.48Z" transform="translate(-611 -1987)"/>
</svg>
