<?xml version="1.0" encoding="utf-8"?>
<!-- Generator: Adobe Illustrator 19.0.0, SVG Export Plug-In . SVG Version: 6.00 Build 0)  -->
<svg version="1.1" id="Шар_1" xmlns="http://www.w3.org/2000/svg" xmlns:xlink="http://www.w3.org/1999/xlink" x="0px" y="0px"
	 viewBox="0 0 64.1 64.7" style="enable-background:new 0 0 64.1 64.7;" xml:space="preserve">
<style type="text/css">
	.st0{clip-path:url(#SVGID_2_);}
	.st1{clip-path:url(#SVGID_2_);fill:#EA5B0C;}
	.st2{clip-path:url(#SVGID_2_);fill:none;stroke:#FFFFFF;stroke-width:0.504;stroke-miterlimit:10;}
	.st3{clip-path:url(#SVGID_2_);fill:none;stroke:#FFFFFF;stroke-width:0.513;stroke-miterlimit:10;}
	.st4{clip-path:url(#SVGID_2_);fill:#FFFFFF;}
	.st5{clip-path:url(#SVGID_2_);fill:none;stroke:#FFFFFF;stroke-width:0.5;stroke-miterlimit:10;}
	.st6{clip-path:url(#SVGID_2_);fill:none;stroke:#FFFFFF;stroke-width:0.996;stroke-miterlimit:10;}
</style>
<g>
	<defs>
		<rect id="SVGID_1_" y="0" width="64.1" height="64.7"/>
	</defs>
	<clipPath id="SVGID_2_">
		<use xlink:href="#SVGID_1_"  style="overflow:visible;"/>
	</clipPath>
	<path class="st0" d="M61.2,32.9c0,16.4-13.3,29.8-29.8,29.8C15,62.7,1.6,49.4,1.6,32.9C1.6,16.5,15,3.2,31.4,3.2
		C47.9,3.2,61.2,16.5,61.2,32.9"/>
	<path class="st0" d="M63.6,32.7c0,0.3,0.4,0.2,0.5,0.2C64,32.4,63.5,32.7,63.6,32.7"/>
	<polygon class="st0" points="62.2,27.9 62.4,28 61.9,27.4 	"/>
	<path class="st0" d="M61.3,23.6c-0.6,0.6,0.5,1.5,0.5,2.4l-0.1,0.2l0.6,0.2C61.9,25.4,61.2,24.3,61.3,23.6"/>
	<path class="st0" d="M61.9,20.8c-0.2,0.2-0.4-0.4,0.1,0.6c0-0.1,0-0.1,0-0.1C62,21.1,61.9,21,61.9,20.8"/>
	<path class="st0" d="M62,21.2C62.2,21.7,62.1,20.8,62,21.2"/>
	<path class="st0" d="M61,19.2l0.5,0.5c0.1-0.2-0.1-0.7,0.1-0.6C61.2,18.5,61.1,18.7,61,19.2"/>
	<path class="st0" d="M60.3,18.9l0.2,0.3C60.5,19,60.5,18.9,60.3,18.9"/>
	<path class="st0" d="M61,19.7l-0.5-0.5c-0.1,0.1-0.3,0.2,0.2,0.3C60.5,19.4,60.7,19.4,61,19.7"/>
	<path class="st0" d="M61.1,20.1c0,0.4,0.1,0.9-0.4,0.4C61.2,21.5,61.6,21.2,61.1,20.1"/>
	<path class="st0" d="M60.5,23.6c0,0,0,0.5-0.1,0.5l0.3,0.3C60.6,24.2,60.7,23.5,60.5,23.6"/>
	<path class="st0" d="M59.4,15.4c-0.1,0-0.2,0.4-0.4,0.5l0.4,0.3C59.4,16,59.2,15.6,59.4,15.4"/>
	<path class="st0" d="M59,16l-0.6-0.5C58.7,16.1,58.9,16.1,59,16"/>
	<polygon class="st0" points="59.5,19.1 60.5,19.9 59.4,18.9 	"/>
	<polygon class="st0" points="57.8,13.2 58.4,13.3 57.5,13 	"/>
	<path class="st0" d="M56.7,11.7c0.4,0,0.1-0.6,0.4-0.5c-0.4-0.3-0.9-0.5-1.3-0.6C56.2,10.8,56.5,11.2,56.7,11.7"/>
	<path class="st0" d="M55.2,10.4c0.2,0.1,0.4,0.2,0.7,0.3C55.6,10.5,55.4,10.4,55.2,10.4"/>
	<path class="st0" d="M57.8,14.5c0-0.1,0.2-0.3,0-0.7l-0.2,0.5C57.7,14.3,57.8,14.4,57.8,14.5"/>
	<path class="st0" d="M57.6,14.3L57.6,14.3c-0.2-0.3-0.3-0.4-0.3-0.5C57.4,13.8,57.5,14,57.6,14.3"/>
	<path class="st0" d="M57.9,14.5C57.8,14.5,57.8,14.5,57.9,14.5C57.8,14.5,57.8,14.5,57.9,14.5"/>
	<path class="st0" d="M59,17.3c-0.4-0.2-1.1-0.8-1,0.1C58.4,17.5,58.4,17,59,17.3"/>
	<path class="st0" d="M57.6,15.1c0,0,0.3,0.7,0.3,0.7c0.1-0.1,0.2-0.3,0.4-0.2C58.3,15.6,57.6,15.1,57.6,15.1"/>
	<polygon class="st0" points="57.3,14.9 57.6,15.1 57.5,14.9 	"/>
	<path class="st0" d="M55.7,11.6c-0.4-0.1-0.6-0.4-0.9-0.6c0.2,0.4,0.5,0.7,0.8,1C55.7,11.9,56.1,11.9,55.7,11.6"/>
	<path class="st0" d="M56.7,12.9L56.7,12.9C56.6,12.9,56.6,12.9,56.7,12.9"/>
	<polygon class="st0" points="52,8.2 52,8.3 52,8.3 	"/>
	<path class="st0" d="M55.6,12.1c0.2,0.3,0.4,0.4,0.6,0.4c-0.2-0.2-0.4-0.3-0.6-0.5C55.5,12,55.5,12,55.6,12.1"/>
	<path class="st0" d="M54.2,9.7c0.1,0.2,0.2,0.4,0.2,0.6C54.5,10,54.4,9.7,54.2,9.7"/>
	<path class="st0" d="M56.6,12.7C56.7,12.7,56.7,12.7,56.6,12.7C56.7,12.6,56.7,12.6,56.6,12.7"/>
	<path class="st0" d="M56.6,12.7c-0.1-0.1-0.3-0.1-0.5-0.2c0.1,0.1,0.3,0.3,0.4,0.3C56.6,12.8,56.6,12.7,56.6,12.7"/>
	<path class="st0" d="M49.4,9.7c0.3-0.3,1.2-0.1,1.4,0.7c0.7,0.2,1.2-1,1.2-2c-0.1,0.1-0.2,0.2-0.9,0c0.1,0.3,0.9,1.4,0.2,1.3
		c-0.8-0.5-0.5-0.6-0.7-1c0,0.6-1.4-0.1-1.7,0.6l0.8,0.3C49.6,9.5,49.3,9.5,49.4,9.7"/>
	<path class="st0" d="M53,9.3l0.3,0.2C53,9.2,53,8.9,52.8,8.4c-0.5-0.2-0.7-0.2-0.8-0.1l1.1,1L53,9.3z"/>
	<path class="st0" d="M54.3,10.4c-0.5,0.1-1.1-0.2-1.1,0.4c0.6,0.6,0.7,0.2,1.2,0.4C53.3,10.3,54.7,11.4,54.3,10.4
		c0.2,0.2,0.4,0.4,0.6,0.5c-0.1-0.2-0.3-0.5-0.4-0.7c0,0,0,0,0,0l0,0l0,0c0,0.1,0,0.1,0,0c0,0,0,0,0,0
		C54.4,10.4,54.3,10.4,54.3,10.4c-0.2-0.4,0-0.1,0.2-0.1c0,0,0,0,0.1,0v0c0,0-1.2-0.8-1.2-0.8C53.4,9.7,53.7,10,54.3,10.4"/>
	<path class="st0" d="M56.9,17.2C56.9,17.2,56.9,17.2,56.9,17.2C56.8,17.1,56.8,17.1,56.9,17.2"/>
	<path class="st0" d="M56.8,16.6c0.1,0.1,0.3,0,0.4,0.3c0,0.3-0.2,0.1-0.3,0.2c0.2,0.1,0.6,0.4,0.5-0.2l-0.1-0.1
		c-0.2-0.5-0.1-1.5,0-1.4C57.1,15.8,56.9,16.1,56.8,16.6"/>
	<path class="st0" d="M55.6,13.5c0,0-0.2-0.2-0.4-0.4c-0.2-0.2-0.5-0.4-0.5-0.4l0.1,0.7l0.2-0.2C55.3,13.8,55.4,13.6,55.6,13.5"/>
	<path class="st0" d="M52,8l0.4-0.2c0,0-0.2,0-0.5,0c-0.2,0-0.5,0-0.5,0L52,8z"/>
	<polygon class="st0" points="50.7,7.1 51,6.8 50.5,6.7 	"/>
	<path class="st0" d="M7.9,46.9l0.3,0.2C8,47,7.9,46.9,7.9,46.9"/>
	<path class="st0" d="M6.9,44.9l-0.2,0C6.8,45,6.9,45,6.9,44.9"/>
	<path class="st0" d="M14.5,5.5c-0.6,0-1.5-0.2-1.2,0.1l0.4,0.3C13.9,5.7,14.2,5.6,14.5,5.5"/>
	<path class="st0" d="M2.3,27.1L2.5,27c-0.1-0.1-0.2-0.3-0.3-0.4C2.2,26.7,2.2,26.9,2.3,27.1"/>
	<path class="st0" d="M4,27.8l-0.4,0.5C3.8,28.2,3.9,28,4,27.8"/>
	<path class="st0" d="M16.2,55.1c0,0,0.1,0,0.3-0.1c0.1,0,0.3-0.1,0.3-0.1C16.3,54.7,16.4,55,16.2,55.1"/>
	<path class="st0" d="M36,1.1c-0.4-0.2-0.8-0.4-1.1-0.4C35.4,1,35.8,1.5,36,1.1"/>
	<path class="st0" d="M3.4,48.4c0.2,0.1,0.3,0.2,0.4,0.1C3.6,48.3,3.5,48.3,3.4,48.4"/>
	<path class="st0" d="M33.6,0.6c0.1,0,0.2,0.1,0.2,0.1c0.3,0,0.7-0.1,1.1,0C34.5,0.5,34.1,0.4,33.6,0.6"/>
	<path class="st0" d="M54.1,48.2C54.1,48.2,54.1,48.2,54.1,48.2C54.1,48.1,54.1,48.1,54.1,48.2"/>
	<path class="st0" d="M62.8,37.1c0,0.1,0,0.4-0.1,0.6C62.8,37.6,62.8,37.5,62.8,37.1"/>
	<path class="st0" d="M45.4,3.6C45.7,3.8,45.5,3.6,45.4,3.6"/>
	<path class="st0" d="M46.1,5.9c-0.1,0-0.2,0-0.2,0.1C45.9,5.9,46,5.9,46.1,5.9"/>
	<path class="st0" d="M30.4,3.3L30.4,3.3C30.5,3.4,30.4,3.3,30.4,3.3"/>
	<path class="st0" d="M45.8,4c-0.1-0.1-0.2-0.2-0.3-0.3C45.5,3.8,45.6,3.9,45.8,4"/>
	<path class="st0" d="M45.8,3.8C45.9,3.9,46,3.9,46.1,4C46.1,3.9,46.1,3.9,45.8,3.8"/>
	<path class="st0" d="M45,3.5c0.2,0.1,0.3,0.2,0.5,0.3c0-0.1-0.1-0.1,0-0.1C45.3,3.6,45.2,3.5,45,3.5"/>
	<path class="st0" d="M35.2,61.1C35.2,61.1,35.2,61.1,35.2,61.1C35.5,60.9,35.4,61,35.2,61.1"/>
	<path class="st0" d="M11.1,14.1C11.1,14.1,11.1,14,11.1,14.1C11.1,14,11.1,14,11.1,14.1L11.1,14.1z"/>
	<path class="st0" d="M10.6,15c-0.1-0.7,0.1-0.8,0.4-1l-1.2-0.6l0.4,0.8C10.5,14.7,10.6,15,10.6,15"/>
	<path class="st0" d="M11,51l-0.2-0.8c1.1,0.2,1.3,0.8,1.3-0.1c-0.5,0.4-1,0-1.5-0.6c-0.4-0.5-0.9-1-1.4-0.7l0-0.5
		c0.1,0.1,0.1,0.1,0.2,0.2c0-1.1-1.2,0-1.7-1.1c-0.1-0.4-0.1-0.8,0.2-0.6l-0.8-0.6C7,46,7.2,46,7.3,46.2L7.2,46
		c-0.1-0.1-0.2-0.3-0.2-0.4C6.8,45.3,6.6,45,6.6,45l0,0c-0.3-0.1-0.8-0.4-1-0.5c0-0.4,0.2,0.1,0.3,0c0,0-0.7-0.6-0.6-0.6
		c0.1-0.2,0.3-0.2,0.5-0.1c0.2,0.1,0.4,0.4,0.5,0.6c0.5-0.6,0.3-0.7,0.1-0.9c-0.2-0.2-0.6-0.5-0.5-1.3l0.4,0.6
		c0.6-0.7,0.1-1.1,0.3-2C6.4,41,6,42.7,5.4,42c0-0.3-0.1-0.6-0.5-0.9C5.4,40.9,5.2,40.6,5,40l0.6-0.1c-0.3-0.5-0.6-0.4-1-0.7
		c-0.1-0.7,0.3-0.9,0.7-1.1c-0.1-1.1-0.7,0.9-1-0.3c0.1-0.9-0.3-1.5-0.7-2.5c0.2-0.6,0.4,0.1,0.6-0.2l-0.5-0.5
		c0-0.1,0.2-0.1,0.2-0.1c-0.2-0.5-0.6,0-0.9-0.7c-0.3-0.1-0.1-0.5,0.1-1c0.3-0.5,0.5-1,0.2-1.5C3.6,31,3.8,31.4,4,31.3
		c-0.5-1.3-0.4-1.1-0.9-2.2l0.6-0.8c-0.6,0.6-1-0.3-1.3-1.2c-0.3,0.2-0.5,0.4-0.6,0.5l-0.1-0.7c0-0.3,0-0.7,0-0.7
		c0.1-0.1,0.3,0,0.5,0.3c0-0.1-0.1-0.2-0.1-0.3C2.4,26,2.7,26.3,3,26.6L2.5,27c0.3,0.4,0.7,0.7,1.1,0.7c-0.1-0.1-0.1-0.2-0.1-0.4
		c0.1,0.1,0.2,0.2,0.2,0.1c0.1,0-0.1-0.2-0.2-0.4l0.8-0.1L4,26.8l0.8-1.4c-0.1-0.3-0.2-0.6-0.4-0.9c-0.1-0.3-0.2-0.6-0.3-1
		c-0.2-0.7-0.3-1.5,0-2.4c0.3,0.6,0.7,0.4,1.3,0.7C4.7,22,5.3,23.2,4.8,24c0.2-0.4,0.5-0.2,0.5-0.1l0-1.7c0.5,0.2,0.5-0.2,0.8-0.5
		c-1.1-0.1-0.1-1.3-0.1-2.1c0.3,0.1,0.6,0.4,0.1,1.1c1.1-0.4-0.6-1.6,0.5-2c-0.1,0.2-0.2,0.2-0.1,0.4c0-0.5,0.8-1.4,0.9-1l-0.1,0.2
		c0.2-0.3,0.4-0.6,0.6-1c0.2-0.4,0.5-0.7,0.7-1.1c0.4-0.7,0.6-1.5,0.4-1.8c0.1,0.1,0.7,0.8,0.8,1c0,0-0.1-0.2-0.1-0.6
		c-0.1-0.3-0.1-0.8-0.2-1.2c-0.1-0.9-0.2-1.9-0.2-1.9c0.4,0.7,2.2,1.3,1.7,2.4c0.3-0.1,0.6-0.4,0.9-1c-0.2,0.1-1.1-0.4-1-0.6
		c1.2,0,0.7-0.1,1.9-0.2c-0.3,0.1-0.8-1-0.4-1.3c0.1,0.2,0.8,0.8,0.7,1c0,0,0-0.4,0.1-0.8c0.1-0.4,0.1-0.8,0.1-0.8
		c-0.1,0.3,0.6,0.8,1,0.9c-0.2-0.1,0.9-0.6,1-0.9l-0.6,0.1c1.2-0.7,0.2-2.1,1.5-2.8c0,0.3,0.4,1.4,1,1.2c0-0.3-0.1-1.1,0.1-2
		c0.1-0.8,0.4-1.7,0.9-2.2l0.4,0.2l0.4-0.4C19.4,4.2,19.6,4,19.6,4c-0.2,0.5-0.4,1.4-0.7,2.3c-0.3,0.9-0.6,1.7-0.8,2.2
		c0.6,0,0.3,0.3,1-0.1c0.4,0.2-0.2,0.6-0.3,0.7l1.7-0.6c-0.2-0.3,0.1-0.6,0.3-0.9c0.3-0.3,0.5-0.5,0.4-0.8c0,0-0.1,0.1-0.2,0.2
		c-0.2,0.1-0.3,0.3-0.5,0.5c-0.4,0.4-0.7,0.7-0.7,0.7c-0.4-0.5,0.2-2.3,1.5-2.6c0.4,0.1,0.2,1.2,0.3,1.4c0.1-0.3,1-0.8,1.2-0.7
		l-0.4,0.5c0.7,0,0.8-1.3,1.8-0.8c0.3,0,1.1,0.6,1,0.2c-0.6-0.6-1.3-2.9-1.1-3.5c0.1,0,1.8,0.3,2.2,0.7c0.6,0.5-0.5,1.5,0,2
		c0-0.2,0.2-0.4,0.3-0.5c0.3,0.1,0,0.6,0.6,0.4c0-0.7,1.4-0.2,0.2-0.6c0.6-0.3,0.7,0,1.5-0.1c-0.3-0.4,0.6-1.5,1.3-1.8
		c0,0.2,0.1,0.4,0.2,0.5c0.4,0,0.7,0,1,0c0.3,0,0.6,0.1,0.8,0.2c0.5,0.1,1.1,0.2,1.7,0.3c0.1,0.2,0.7,0.4,0.4,0.7
		c0.2-0.1,0.4-0.3,0.8-0.3c0.7,0.7-0.9,0-0.4,0.7c0.1-0.4,1.1-0.4,1.7-0.5c-0.1-0.6-1.3-0.3-1.9-0.2c0.1-0.8,1.2-1.6,2.7-1.7
		c1.2,0,0.4,0.6,0.6,0.6c1,0.3,1.6,0.1,2.1-0.1c0.5-0.2,1-0.4,1.7,0.3c0.5,0.8-0.3,1-0.3,1.4c-0.5-0.1-0.8-0.3-1-0.5
		C40,4,39.8,3.8,39.5,3.7l0.7,0.4c-0.3,0.1-1,0.1-1.2-0.2c0.4,0.6,3.4,1.1,4.7,2.2c0.3,0,0.9,0,0.7-0.3l-0.5-0.2
		c-0.3-0.6,1.1-0.1,0.6-0.6c0.4,0,0.8,0,1.2,0.1c0.4,0.1,0.9,0.2,1.2,0.6l-0.1,0.6c0.1-0.2-0.4-0.7-0.7-0.6c0.5,0,0.9,1.5,1.7,1.1
		l-0.4-0.7c0.8,0.1,1.9,0,2.5,0.7c0-0.7-0.2-0.1-0.3-1c0,1-2-1.3-1.7,0c-0.2-1-0.8-0.9-1.3-1.9c-0.1,0.2,0.1,0.5-0.6,0
		C46,4,45.9,4,45.8,4.1c0,0,0,0,0,0l0,0c0,0,0,0,0,0C45.9,4.2,46,4.4,46,4.5c-0.6,0.2-1.6-0.3-2.1-0.2c-0.4-0.3,0.3-0.1,0.1-0.4
		l-0.3,0c-0.2,0-0.4,0.1-0.4,0.1c0.1-0.4-0.9-1.1,0.3-1l-0.9-0.4c-0.5-0.4-1.2-0.8-1.7-0.8c-0.4-0.2-1.3,0.2-0.8-0.1l-1.6-0.1l0-0.1
		c-0.7-0.2-1.5-0.1-2.3-0.2c-0.8,0-1.6-0.2-2.4-0.6c-0.5,0.1-1,0.2-1.9,0l-0.2-0.4c-0.7,0.1-2-0.3-2.3,0.1c-0.4-0.5-1.2-0.6-2.1-0.4
		c-0.9,0.2-1.7,0.5-2.3,0.5l0.1,0.5c-0.8,0.1-1.5,0.5-2.4,0.9L23,2.4c-0.7,0.5-2.1,0.3-3.4,0.8c0-0.2,0.4-0.3,0.6-0.3
		c-0.5-0.1-0.9,0-1.3,0.1c-0.4,0.2-0.7,0.5-1,0.7C17.2,4.4,16.6,5,15.8,5c-0.2,0.3-0.5,0.4-0.7,0.4c0,0,0,0,0.1-0.1
		c0,0-0.1,0-0.1,0.1c-0.2,0-0.4,0-0.6,0.1c0.2,0,0.4,0,0.5,0c-0.2,0.2-0.6,0.4-0.9,0.7l-0.4-0.3c0,0,0,0-0.1,0.1
		c-0.4,0.1-0.2,0.4,0.2,0.5c-0.1,0.2-0.2,0.4-0.3,0.5c-0.7-0.4-0.7,0.8-1.6,0.4c0,0.2-0.4,0.6-0.7,1C11,9,10.8,9.5,11,9.9
		c-0.1-0.1-0.2,0-0.1-0.2c-0.4,0.2-0.8,0.5-0.9,0.9l-0.6-0.3c0,0,0,0.3-0.1,0.6l0,0.6c-0.7,0.2-1,0.2-0.9-0.5
		C8,12.5,7.8,12,7.6,13.4l-0.3-0.3c-0.3,0.4-0.2,1.2-0.7,1.2c-1.3,0.3-2.8,3.9-4.4,5.9c0.6,0,0.4,0.2,0.1,0.5
		c-0.3,0.3-0.6,0.6-0.2,0.8c-0.3,0-0.6,0.3-0.7-0.2c-0.2,1.3-1.1,1.7-0.6,2.8c-0.3,0.1-0.3-0.4-0.5-0.3c0,0.1,0.1,0.5-0.1,0.6
		c-0.2,0.1-0.2-0.2-0.2-0.5c-0.3,1.3,0.5,1.7,1.3,1.9c-0.5,0.5-0.6,0.9-0.1,1.5c-0.3,0.2-0.6,0.5-0.6-0.3c-0.1,0.4-0.8,2.7-0.2,2.8
		c-0.2,0.1-0.1,0.6,0,0.8c-0.1,1-0.2,1.1-0.1,2.1l0.1-0.3c0.7,0.4,0.2,0.8,0.3,1.6l-0.1,0c-0.2,0.9-0.2,1.1-0.1,1.3
		c0.1,0.2,0.1,0.4-0.1,1.3l0.5-0.2c1,0-0.4,1.7,0.2,2.6l0.2-0.4c0.4,0.5-1,1.9-1,2.5c-0.1,0.2-0.2-0.2-0.3-0.3
		c-0.2,1.7,0.7,0,1.1,1.1c-0.3,0.3-0.9,0-0.7,0.8c-0.1,0.5,1.8,1.8,1.6,3c0.1-0.3,0.3-0.6,0.7-0.2c0.4,0.7,0,2.5,1.2,2.7
		c0,0.1,0,0.2-0.1,0.2c0.5,0.4,1.4,1.6,1.9,1.6c-0.5,0.7,0.2,1.4,0.9,1.9c0.7,0.6,1.4,1,0.8,1.5l1.4,1.4L8.7,55c0.8,1,1.4,1,1.9,1
		c0.1,0.3-0.1,0.2-0.2,0.3c1.1,1.4,1.4,1.5,3,1.7l-0.2,0.5c0.2,0,0.6,0.6,1.3,1.1c0.6,0.5,1.4,1.2,2.3,1.3c0,0-0.1,0.1-0.3,0.1
		c1,0.2,1.9,1,2.8,1.6c0.9,0.5,1.7,0.9,2.4,0.1c0,0,1.4-0.1,1.4-0.1c-1.6-0.5,0.5-0.7-0.1-1.1c0.6,0.1,1.4,0.9,0.7,0.8l-0.1-0.1
		c-0.5,0.8,1.9,0.9,1.7,1.4c3.2,0.6,6.5,1.2,9.6,0.9L34.5,64c0,0,1.1-0.1,1.1-0.1c0.3,0.1,0.5,0.5-0.3,0.6c0.5,0.3,1.2-0.5,1.2-0.7
		c1.5,0.1-0.4,0.9,0,0.9l0.6-0.2L37,64.4c0.5-0.4,0.5-0.6,1.4-0.9c0.6,0,0.4,0.4,0.6,0.3c0,0.1,0.1,0.1,0.4-0.1l1.4-0.3l-0.7-0.4
		c0.5-0.4,1.2-0.3,0.4-0.8c0.6,0.4,1.8,0,3-0.4c1.1-0.5,2.1-1.1,2.5-1.1c0.6-0.7,1.2-1.2,2.2-1.7c-0.3,0-0.7-0.4,0-0.8
		c0.2,0.6,0.7,0.6,1.2,0.3c0.5-0.2,1.1-0.6,1.6-0.4c-0.5-0.1,0-0.5,0.5-0.9c0.4-0.4,0.7-0.9,0.1-0.9c0.6-0.4,0.4,0.4,1,0.2
		c0.5-0.8,1.3-1.3,2.1-2c0.8-0.7,1.7-1.3,2.3-2.3c-0.1-0.1-0.6,0-0.5-0.5l1.4-0.4c0.2-0.4-0.6-0.9,0.3-1.2c-0.2,0-0.5,0-0.4-0.2
		c1.5-1.6,2.4-3.6,3.1-5.7c0.3-1,0.7-2.1,1.1-3.1c0.2-0.5,0.4-1,0.6-1.5c0.3-0.5,0.4-1,0.7-1.5c-0.4,0.5-0.4,0.1-0.3-0.3
		c-0.1,0.3-0.4-0.1-0.7-0.1c0,0,0.2-0.4,0.5-0.8c0.1-0.2,0.2-0.4,0.3-0.6C62.9,36.1,63,36,63,36c-0.6-0.4,0.1-2-0.6-2.2l0.1,0.6
		c-0.7-0.8-1.7,1-2.7,0.8c0.2,0.2,0.2,0.4,0.1,0.7c-0.1,0.2-0.3,0.5-0.5,0.8c-0.4,0.5-0.7,1.1-0.2,1.8c-0.2,0.2-0.3-0.3-0.5-0.2
		c0.4,0.4,0.3,0.8,0,1.4l-0.1-0.1c-0.4,2-1.1,2.7-2.2,4.6l0.5,0c-0.3,0.4-0.4,0.4-0.7,0.6c0.4,0.8,0.6-1.2,1.1-0.4
		c-0.6,0.1-1,0.9-1.3,1.6c-0.4,0.7-0.9,1.4-1.4,1.3c-0.4,0.6,0.6,0.1,0.2,0.7l-0.4,0l0.2,0.4c-0.3,0.4-0.8,0.3-1,0.2
		c0.1-0.1,0.1-0.3,0.2-0.4c-0.7,0.3-0.9,1.5-1.2,1.6l0.6-0.4c-0.2,0.4-0.5,0.9-0.9,1.3c-0.4,0.4-0.7,0.8-1.1,1.2L51,52.5
		c-0.2,0.2-0.4,0.4-0.6,0.6c-0.4,0.4-0.7,0.8-0.9,1.3l0.3,0.1c-0.9,1.3-1.1,0.5-2.3,1.7l0-0.1c-0.1,0.4-0.5,0.7-0.9,0.9
		c0.2-0.4-0.9,0-0.6-0.6c-1.2,1.2-0.5,0.7-1,2l-0.4-0.2c-0.2,0.5-0.1,0.6-0.9,1.1c0.5-0.6-0.7-0.3-0.2-1c-0.5,0-0.8,0.1-1.1,0.3
		c-0.3,0.1-0.5,0.3-0.8,0.5c-0.4,0.3-0.8,0.6-1.3,0.1c-0.4,1.2,1.6,0,1.3,0.4c0.5,0.2-0.4,1-0.9,1c-0.5,0.2-1.3-1-2.6-0.6
		c0.1,0,0.1-0.1,0.3-0.1c-0.6-0.1-0.9,0.6-1.6,0.3c-0.2,0.7-0.8,0.1-0.8,0.9l1.2-0.4c-0.7,0.3-1.2,1.3-2.5,1.1
		c0.1-0.2,0.4-0.4,0.6-0.6c-0.4-0.2-0.7,0.3-1,0.1c0-0.8,1.5-0.4,2.2-1.1c-0.4-0.3-1.3,0.8-1.1-0.1c-0.2,0.6-0.5,0.6-0.9,0.6
		c-0.4,0-0.8-0.1-1.3,0.3l0-0.5c-0.1,0.1-0.4,0.3-0.7,0.3l0.5-0.6c-0.7,0.6-1.4-0.4-2.1-0.1c1.5,0.1,0.3,0.6,1,0.9
		c-1.9,0.6-1-1.3-3.1-1.2c0.3,0,1,0.3,0.6,0.5c-0.4-0.1-0.9-0.4-1.1-0.6c-1.3-0.1,0.1,0.5-0.5,0.7c-0.4-0.6-0.7,0.1-1.3,0.2l0.1-0.5
		c-1.5-0.6-0.6,0.9-1.9,0.2l0.7-0.5l-0.8,0l0.3-0.5c-0.9,0.2-1.1,0.1-1.8-0.3c0.1,0.4-0.4,0.8-1,0.6c-0.4-0.4,0.4-0.3-0.5-0.6
		c0.3-0.2,0.7-0.5,0.9,0.1c0.1-0.1,0.3-0.2,0.4-0.3c-0.4-0.5-1.2-0.5-1.5-0.6c0.1,0.1,0.3,0.1,0.3,0.2c0,0-0.4,0-0.8,0.1
		c-0.4,0-0.8,0-0.8,0C19.7,58,20,58,20.2,57.9c-0.3-0.1-0.6,0-1-0.1c0.3-0.3,0.4-0.7,1-0.6L18.9,57c0-0.2-0.4-0.7-0.2-0.8
		c-0.5-0.6-1.9-0.3-2.6-1.1c-0.1,0-0.2,0-0.4,0c-0.3-0.3-0.6-0.7-0.9-1c-0.3-0.3-0.7-0.6-1.3-0.8l0-0.9c-0.7-0.5,0,1.2-1.2,0.4
		c-0.9-0.5,0.1-0.7,0-1.1c-0.6-0.1-1.7-0.3-1.9-1.4C10.7,50.6,10.8,50.8,11,51 M5.4,42c0.2,0.2,0.6,0.4,0.4,0.7
		C5.2,42.7,5.4,42.4,5.4,42 M3.6,25.7c0.1,0.2,0,0.4-0.3,0.6C3.4,26.1,3.5,25.9,3.6,25.7 M41.9,2.6C41.9,2.6,41.9,2.6,41.9,2.6
		C41.4,2.3,41.6,2.4,41.9,2.6 M42.9,3.2C43,3.2,43,3.1,43,3c-0.1,0.1-0.4,0-0.6-0.1C42.4,3,42.5,3.2,42.9,3.2 M39,63.7l-0.2-0.1
		C39.2,63.4,39.1,63.5,39,63.7"/>
	<path class="st0" d="M3.8,27.7c-0.1,0-0.2,0-0.3,0C3.6,27.8,3.7,27.8,3.8,27.7"/>
	<path class="st0" d="M16.1,55.2L16.1,55.2C16.2,55.2,16.2,55.2,16.1,55.2L16.1,55.2z"/>
	<path class="st0" d="M26.6,5.6c-0.2,0-0.3-0.1-0.4-0.2C26.2,5.5,26.3,5.6,26.6,5.6"/>
	<path class="st0" d="M48.6,5.1l-0.7-0.3c0.3,0.2,0.4,0.3,0.5,0.5C48.4,5.2,48.4,5,48.6,5.1"/>
	<path class="st0" d="M51.6,11.1c0.1,0,0.2,0.1,0.3,0.2l0.1-0.2C51.7,10.8,51.3,10.8,51.6,11.1"/>
	<path class="st0" d="M48.3,6.8c-0.2,0.4,0.3,0.5,0.7,0.7c0,0,0,0-0.1-0.1C49.4,7.1,48.8,6.9,48.3,6.8"/>
	<path class="st0" d="M49.1,7.6c0.1,0.1,0.3,0.2,0.4,0.3C49.6,7.7,49.3,7.7,49.1,7.6"/>
	<path class="st0" d="M44.3,3.5c0.2,0.2,0.3-0.4,0.4-0.2C45.1,2.9,43,3.2,44.3,3.5"/>
	<polygon class="st0" points="47.9,8.1 48,7.6 47.6,7.8 	"/>
	<path class="st0" d="M44.8,6l0.6,0.5c0-0.1,0.1-0.1,0.3-0.1C45.3,6.1,44.9,5.8,44.8,6"/>
	<path class="st0" d="M45.7,6.4c0.2,0.1,0.4,0.2,0.6,0.2C46.2,6.5,45.9,6.4,45.7,6.4"/>
	<polygon class="st0" points="46.9,7.7 46.8,7.5 46.4,7.2 	"/>
	<path class="st0" d="M37.2,3.3l-0.8,0c-0.1,0.2,0.1,0.3,0.4,0.3C37,3.5,37.3,3.4,37.2,3.3"/>
	<path class="st0" d="M39.3,5.2C39.1,5,39.1,4.9,39,4.7l-0.2,0.6L39.3,5.2z"/>
	<path class="st0" d="M37,4.8c-0.1,0.2-1.2,0.3-0.2,0.4C36.9,5,37.7,5,37,4.8"/>
	<polygon class="st0" points="25.1,4.1 25.3,4.1 25.1,3.1 	"/>
	<path class="st0" d="M16.6,10.3c0.9-0.2-0.2-0.6,0.7-0.8c0.1-0.3-0.7,0.1-0.6-0.2C16.4,9.8,16,9.8,16.6,10.3"/>
	<path class="st0" d="M16.7,9.3c0.1-0.1,0.1-0.2,0.2-0.3C16.7,9.2,16.7,9.3,16.7,9.3"/>
	<polygon class="st0" points="63.6,34.8 63.8,34.1 63.4,34.5 	"/>
	<path class="st0" d="M62.9,33.5l0.7-0.1l-0.6-0.4C63,33.1,63,33.4,62.9,33.5"/>
	<path class="st0" d="M6.2,40.2l-0.2,0c-0.1,0.1-0.1,0.3-0.1,0.5L6.2,40.2z"/>
	<polygon class="st0" points="8.8,47.1 8.7,47 8.4,47.6 	"/>
	<path class="st0" d="M13.3,51.5c-0.2-0.2-0.5-0.3-0.6-0.5C13.1,51.4,12.8,52.1,13.3,51.5"/>
	<rect x="23.1" y="12.3" transform="matrix(0.9659 0.2588 -0.2588 0.9659 6.7517 -6.5048)" class="st1" width="10" height="20.2"/>
	<rect x="23.1" y="12.3" transform="matrix(0.9659 0.2588 -0.2588 0.9659 6.7517 -6.5048)" class="st2" width="10" height="20.2"/>
	<rect x="32.8" y="14.8" transform="matrix(0.9659 0.2588 -0.2588 0.9659 7.7295 -8.8687)" class="st1" width="9.6" height="20.2"/>
	<rect x="32.8" y="14.8" transform="matrix(0.9659 0.2588 -0.2588 0.9659 7.7295 -8.8687)" class="st2" width="9.6" height="20.2"/>
	<rect x="42" y="17.4" transform="matrix(0.9659 0.2589 -0.2589 0.9659 8.7058 -11.2195)" class="st1" width="9.9" height="20.2"/>
	<rect x="42" y="17.4" transform="matrix(0.9659 0.2589 -0.2589 0.9659 8.7058 -11.2195)" class="st3" width="9.9" height="20.2"/>
	<polygon class="st4" points="30.9,48.7 39.9,43.5 25.8,39.8 	"/>
	<polygon class="st5" points="30.9,48.7 39.9,43.5 25.8,39.8 	"/>
	<polygon class="st1" points="20.6,30.8 20.6,30.8 25.8,39.8 39.9,43.5 48.8,38.4 	"/>
	<polygon class="st5" points="20.6,30.8 20.6,30.8 25.8,39.8 39.9,43.5 48.8,38.4 	"/>
	<polygon class="st6" points="48.8,38.4 30.9,48.7 20.8,30.9 26.1,11.4 54,18.9 	"/>
	<path class="st4" d="M30.9,48.2c-1.7,2.2-9,1.6-11.6,1.8c-2.8,0.2-7.3-0.3-9.9,0.9c-3.8,1.8,5.5,2.1,6.4,2.2
		c8.7,0.5,17.5,1,26.2,1.9c1.8,0.2,3.5,0.3,5.3,0.7C48.8,55.9,50,56,48,57c-3.6,1.9-9,1-13,1.7c-0.8,0.1-2.4,0-2,1.2
		c0.6,1.7,8.4,1.7,9.8,1.6c0.4,0,0.5-0.7,0-0.7c-1.5,0.1-3.1-0.1-4.6-0.3c-1-0.1-2.6-0.1-3.5-0.6c-1.5-0.8-0.2-0.4,0.9-0.6
		c3.5-0.5,7.1-0.5,10.6-1.2c2.8-0.6,5.9-2.2,1.7-3.1c-7-1.6-14.6-1.6-21.8-2c-3.7-0.2-7.4-0.5-11.1-0.7c-1.1-0.1-2.3-0.1-3.5-0.2
		c-2.7-0.3-3-0.5-0.3-0.8c4.2-0.5,8.5-0.6,12.8-1c1.8-0.2,6,0,7.2-1.6C31.6,48.4,31.2,47.9,30.9,48.2"/>
</g>
</svg>
