<?xml version="1.0" encoding="utf-8"?>
<!-- Generator: Adobe Illustrator 19.0.0, SVG Export Plug-In . SVG Version: 6.00 Build 0)  -->
<svg version="1.1" id="Шар_1" xmlns="http://www.w3.org/2000/svg" xmlns:xlink="http://www.w3.org/1999/xlink" x="0px" y="0px"
	 viewBox="0 0 59.5 59.5" style="enable-background:new 0 0 59.5 59.5;" xml:space="preserve">
<style type="text/css">
	.st0{clip-path:url(#SVGID_2_);}
	.st1{clip-path:url(#SVGID_2_);fill:#EA5B0C;}
	.st2{clip-path:url(#SVGID_2_);fill:none;stroke:#FFFFFF;stroke-width:0.75;stroke-miterlimit:10;}
	.st3{clip-path:url(#SVGID_2_);fill-rule:evenodd;clip-rule:evenodd;fill:#EA5B0C;}
</style>
<g>
	<defs>
		<rect id="SVGID_1_" width="59.5" height="59.5"/>
	</defs>
	<clipPath id="SVGID_2_">
		<use xlink:href="#SVGID_1_"  style="overflow:visible;"/>
	</clipPath>
	<path class="st0" d="M59.5,29.8c0,16.4-13.3,29.8-29.8,29.8C13.3,59.5,0,46.2,0,29.8C0,13.3,13.3,0,29.8,0
		C46.2,0,59.5,13.3,59.5,29.8"/>
	<path class="st1" d="M29.9,16.8c0,0-0.1,0-0.1,0c-0.1,0.2-0.2,0.5-0.3,0.7c-0.8,2-1.6,4-2.3,6.1c-0.2,0.5-0.5,0.7-1,0.8
		c-0.9,0.1-1.8,0.2-2.7,0.3c-3.6,0.5-7.3,1-10.9,1.4c-0.6,0.1-0.8,0.2-0.8,0.8c0,4.9,0,9.8,0,14.7c0,0.5,0.1,0.7,0.6,0.8
		c5.7,1.5,11.4,3.1,17.1,4.6c0.2,0.1,0.5,0.1,0.8,0c5.7-1.5,11.4-3.1,17-4.6c0.5-0.1,0.7-0.4,0.7-0.9c0-4.8,0-9.7,0-14.5
		c0-0.2,0-0.4,0-0.7c-1-0.1-2-0.3-3-0.4v13.8c-5,1.4-10,2.7-15,4.1V16.8z"/>
	<path class="st2" d="M29.9,16.8c0,0-0.1,0-0.1,0c-0.1,0.2-0.2,0.5-0.3,0.7c-0.8,2-1.6,4-2.3,6.1c-0.2,0.5-0.5,0.7-1,0.8
		c-0.9,0.1-1.8,0.2-2.7,0.3c-3.6,0.5-7.3,1-10.9,1.4c-0.6,0.1-0.8,0.2-0.8,0.8c0,4.9,0,9.8,0,14.7c0,0.5,0.1,0.7,0.6,0.8
		c5.7,1.5,11.4,3.1,17.1,4.6c0.2,0.1,0.5,0.1,0.8,0c5.7-1.5,11.4-3.1,17-4.6c0.5-0.1,0.7-0.4,0.7-0.9c0-4.8,0-9.7,0-14.5
		c0-0.2,0-0.4,0-0.7c-1-0.1-2-0.3-3-0.4v13.8c-5,1.4-10,2.7-15,4.1V16.8z"/>
	<path class="st1" d="M51,24.5c-1-2.5-1.9-4.8-2.9-7.2C48,17.2,47.7,17,47.5,17c-5.2-1.1-10.3-2.3-15.5-3.4
		c-0.4-0.1-0.7-0.1-1.2-0.2c1.1,3,2.2,5.8,3.2,8.6c0.1,0.2,0.4,0.3,0.6,0.3c3,0.4,6,0.8,9,1.2C46,23.9,48.4,24.2,51,24.5"/>
	<path class="st2" d="M51,24.5c-1-2.5-1.9-4.8-2.9-7.2C48,17.2,47.7,17,47.5,17c-5.2-1.1-10.3-2.3-15.5-3.4
		c-0.4-0.1-0.7-0.1-1.2-0.2c1.1,3,2.2,5.8,3.2,8.6c0.1,0.2,0.4,0.3,0.6,0.3c3,0.4,6,0.8,9,1.2C46,23.9,48.4,24.2,51,24.5z"/>
	<path class="st1" d="M28.7,13.4c-0.3,0-0.5,0.1-0.7,0.1c-5.2,1.1-10.3,2.3-15.5,3.4c-0.6,0.1-0.9,0.4-1.1,0.9
		c-0.3,0.8-0.7,1.5-1,2.3c-0.6,1.4-1.2,2.8-1.9,4.4c1.4-0.2,2.6-0.4,3.9-0.5c4.2-0.6,8.3-1.1,12.5-1.7c0.2,0,0.4-0.2,0.5-0.3
		C26.5,19.2,27.6,16.3,28.7,13.4"/>
	<path class="st2" d="M28.7,13.4c-0.3,0-0.5,0.1-0.7,0.1c-5.2,1.1-10.3,2.3-15.5,3.4c-0.6,0.1-0.9,0.4-1.1,0.9
		c-0.3,0.8-0.7,1.5-1,2.3c-0.6,1.4-1.2,2.8-1.9,4.4c1.4-0.2,2.6-0.4,3.9-0.5c4.2-0.6,8.3-1.1,12.5-1.7c0.2,0,0.4-0.2,0.5-0.3
		C26.5,19.2,27.6,16.3,28.7,13.4z"/>
	<path class="st3" d="M29.9,16.8v27c5-1.4,10-2.7,15-4.1V25.9c1,0.1,2,0.3,3,0.4c0,0.3,0,0.5,0,0.7c0,4.9,0,9.7,0,14.5
		c0,0.6-0.2,0.8-0.7,0.9c-5.7,1.5-11.4,3.1-17,4.6c-0.2,0.1-0.5,0.1-0.8,0c-5.7-1.5-11.4-3.1-17.1-4.6c-0.5-0.1-0.6-0.3-0.6-0.8
		c0-4.9,0-9.8,0-14.7c0-0.6,0.2-0.7,0.8-0.8c3.6-0.5,7.3-1,10.9-1.4c0.9-0.1,1.8-0.2,2.7-0.3c0.5-0.1,0.8-0.2,1-0.8
		c0.7-2,1.5-4.1,2.3-6.1c0.1-0.2,0.2-0.5,0.3-0.7C29.9,16.8,29.9,16.8,29.9,16.8"/>
	<path class="st2" d="M29.9,16.8v27c5-1.4,10-2.7,15-4.1V25.9c1,0.1,2,0.3,3,0.4c0,0.3,0,0.5,0,0.7c0,4.9,0,9.7,0,14.5
		c0,0.6-0.2,0.8-0.7,0.9c-5.7,1.5-11.4,3.1-17,4.6c-0.2,0.1-0.5,0.1-0.8,0c-5.7-1.5-11.4-3.1-17.1-4.6c-0.5-0.1-0.6-0.3-0.6-0.8
		c0-4.9,0-9.8,0-14.7c0-0.6,0.2-0.7,0.8-0.8c3.6-0.5,7.3-1,10.9-1.4c0.9-0.1,1.8-0.2,2.7-0.3c0.5-0.1,0.8-0.2,1-0.8
		c0.7-2,1.5-4.1,2.3-6.1c0.1-0.2,0.2-0.5,0.3-0.7C29.9,16.8,29.9,16.8,29.9,16.8z"/>
	<path class="st3" d="M51,24.5c-2.6-0.3-5-0.6-7.4-0.9c-3-0.4-6-0.8-9-1.2c-0.2,0-0.5-0.2-0.6-0.3c-1.1-2.8-2.1-5.7-3.2-8.6
		c0.5,0.1,0.8,0.1,1.2,0.2c5.2,1.1,10.3,2.3,15.5,3.4c0.2,0,0.5,0.2,0.6,0.4C49.1,19.7,50,22,51,24.5"/>
	<path class="st2" d="M51,24.5c-2.6-0.3-5-0.6-7.4-0.9c-3-0.4-6-0.8-9-1.2c-0.2,0-0.5-0.2-0.6-0.3c-1.1-2.8-2.1-5.7-3.2-8.6
		c0.5,0.1,0.8,0.1,1.2,0.2c5.2,1.1,10.3,2.3,15.5,3.4c0.2,0,0.5,0.2,0.6,0.4C49.1,19.7,50,22,51,24.5z"/>
	<path class="st3" d="M28.7,13.4c-1.1,2.9-2.2,5.8-3.3,8.6c-0.1,0.2-0.3,0.3-0.5,0.3c-4.2,0.6-8.3,1.1-12.5,1.7
		c-1.3,0.2-2.5,0.3-3.9,0.5c0.7-1.5,1.3-2.9,1.9-4.4c0.3-0.8,0.7-1.5,1-2.3c0.2-0.6,0.5-0.8,1.1-0.9c5.2-1.1,10.3-2.3,15.5-3.4
		C28.2,13.4,28.4,13.4,28.7,13.4"/>
	<path class="st2" d="M28.7,13.4c-1.1,2.9-2.2,5.8-3.3,8.6c-0.1,0.2-0.3,0.3-0.5,0.3c-4.2,0.6-8.3,1.1-12.5,1.7
		c-1.3,0.2-2.5,0.3-3.9,0.5c0.7-1.5,1.3-2.9,1.9-4.4c0.3-0.8,0.7-1.5,1-2.3c0.2-0.6,0.5-0.8,1.1-0.9c5.2-1.1,10.3-2.3,15.5-3.4
		C28.2,13.4,28.4,13.4,28.7,13.4z"/>
</g>
</svg>
