<?xml version="1.0" encoding="utf-8"?>
<!-- Generator: Adobe Illustrator 19.0.0, SVG Export Plug-In . SVG Version: 6.00 Build 0)  -->
<svg version="1.1" id="Шар_1" xmlns="http://www.w3.org/2000/svg" xmlns:xlink="http://www.w3.org/1999/xlink" x="0px" y="0px"
	 viewBox="0 0 59.5 59.5" style="enable-background:new 0 0 59.5 59.5;" xml:space="preserve">
<style type="text/css">
	.st0{clip-path:url(#SVGID_2_);}
	.st1{clip-path:url(#SVGID_2_);fill:#EA5B0C;}
	.st2{clip-path:url(#SVGID_2_);fill:none;stroke:#FFFFFF;stroke-width:0.25;stroke-miterlimit:10;}
	.st3{clip-path:url(#SVGID_2_);fill-rule:evenodd;clip-rule:evenodd;fill:#EA5B0C;}
	.st4{clip-path:url(#SVGID_2_);fill:none;stroke:#FFFFFF;stroke-width:0.75;stroke-miterlimit:10;}
	.st5{clip-path:url(#SVGID_2_);fill-rule:evenodd;clip-rule:evenodd;fill:#FFFFFF;}
</style>
<g>
	<defs>
		<rect id="SVGID_1_" width="59.5" height="59.5"/>
	</defs>
	<clipPath id="SVGID_2_">
		<use xlink:href="#SVGID_1_"  style="overflow:visible;"/>
	</clipPath>
	<path class="st0" d="M59.5,29.8c0,16.4-13.3,29.8-29.8,29.8C13.3,59.5,0,46.2,0,29.8C0,13.3,13.3,0,29.8,0
		C46.2,0,59.5,13.3,59.5,29.8"/>
	<path class="st1" d="M15.9,42c3.2,0.4,6.3,0.8,9.5,1.1c0.2-1.3,0.3-2.6,0.5-4c-0.6-0.1-1.1-0.1-1.7-0.2c-0.1,0.8-0.2,1.5-0.3,2.3
		c-2.1-0.3-4.1-0.5-6.2-0.7c0.1-0.8,0.1-1.6,0.2-2.3c-0.6-0.1-1.1-0.1-1.7-0.1C16.2,39.3,16.1,40.6,15.9,42"/>
	<path class="st2" d="M15.9,42c3.2,0.4,6.3,0.8,9.5,1.1c0.2-1.3,0.3-2.6,0.5-4c-0.6-0.1-1.1-0.1-1.7-0.2c-0.1,0.8-0.2,1.5-0.3,2.3
		c-2.1-0.3-4.1-0.5-6.2-0.7c0.1-0.8,0.1-1.6,0.2-2.3c-0.6-0.1-1.1-0.1-1.7-0.1C16.2,39.3,16.1,40.6,15.9,42z"/>
	<path class="st3" d="M15.9,42c0.1-1.3,0.2-2.6,0.4-3.9c0.6,0,1.1,0.1,1.7,0.1c-0.1,0.8-0.1,1.5-0.2,2.3c2.1,0.2,4.1,0.5,6.2,0.7
		c0.1-0.8,0.2-1.5,0.3-2.3c0.6,0.1,1.1,0.1,1.7,0.2c-0.2,1.3-0.3,2.6-0.5,4C22.3,42.7,19.2,42.3,15.9,42"/>
	<path class="st4" d="M15.9,42c0.1-1.3,0.2-2.6,0.4-3.9c0.6,0,1.1,0.1,1.7,0.1c-0.1,0.8-0.1,1.5-0.2,2.3c2.1,0.2,4.1,0.5,6.2,0.7
		c0.1-0.8,0.2-1.5,0.3-2.3c0.6,0.1,1.1,0.1,1.7,0.2c-0.2,1.3-0.3,2.6-0.5,4C22.3,42.7,19.2,42.3,15.9,42z"/>
	<path class="st5" d="M34.3,23.3c-0.4-0.4-0.8-0.8-1.2-1.2c2.8-2.8,5.6-5.6,8.4-8.4c0.4,0.4,0.8,0.8,1.2,1.2
		C40,17.7,37.2,20.5,34.3,23.3"/>
	<path class="st5" d="M48.5,36.3c-0.1,0.6-0.3,1.1-0.4,1.6c-3.8-1-7.7-2-11.5-3c0.1-0.6,0.3-1.1,0.4-1.6
		C40.8,34.3,44.6,35.3,48.5,36.3"/>
	<path class="st5" d="M35.5,29.2c-0.1-0.5-0.3-1-0.4-1.5c3.8-1,7.6-2,11.3-3c0.1,0.5,0.3,1,0.4,1.5C43.1,27.1,39.3,28.1,35.5,29.2"
		/>
	<path class="st3" d="M29,21.5c-0.1,0-0.1,0.1-0.2,0.1c-5.4,3.7-10.8,7.4-16.2,11.1c-0.2,0.1-0.2,0.3-0.2,0.5c0,0.1,0,0.2,0.1,0.3
		c-0.3,0.1-0.6,0.1-0.8,0.2c0.3,0.9,0.5,1.9,0.7,2.8c0.3-0.1,0.5-0.1,0.8-0.2c0.1,0.3,0.2,0.4,0.6,0.4c5.8,0.4,11.6,0.9,17.3,1.3
		c0.7,0.1,1.4,0.1,2.2,0.2C31.9,32.5,30.5,27,29,21.5"/>
	<path class="st4" d="M29,21.5c-0.1,0-0.1,0.1-0.2,0.1c-5.4,3.7-10.8,7.4-16.2,11.1c-0.2,0.1-0.2,0.3-0.2,0.5c0,0.1,0,0.2,0.1,0.3
		c-0.3,0.1-0.6,0.1-0.8,0.2c0.3,0.9,0.5,1.9,0.7,2.8c0.3-0.1,0.5-0.1,0.8-0.2c0.1,0.3,0.2,0.4,0.6,0.4c5.8,0.4,11.6,0.9,17.3,1.3
		c0.7,0.1,1.4,0.1,2.2,0.2C31.9,32.5,30.5,27,29,21.5z"/>
</g>
</svg>
